<svg width="45" height="44" viewBox="0 0 45 44" fill="none" xmlns="http://www.w3.org/2000/svg">
<rect x="0.75" width="44" height="44" rx="22" fill="#F4F4F7"/>
<path fill-rule="evenodd" clip-rule="evenodd" d="M19.6082 14.3129C19.743 14.1178 19.9742 14 20.2223 14H25.2777C25.5258 14 25.757 14.1178 25.8918 14.3129L27.3607 16.4381H30.3331C30.9811 16.4381 31.598 16.6865 32.0495 17.122C32.5003 17.5569 32.75 18.1425 32.75 18.7492V27.6889C32.75 28.2956 32.5003 28.8812 32.0495 29.3161C31.598 29.7516 30.9811 30 30.3331 30H15.1669C14.5189 30 13.902 29.7516 13.4505 29.3161C12.9997 28.8812 12.75 28.2956 12.75 27.6889V18.7492C12.75 18.1425 12.9997 17.5569 13.4505 17.122C13.902 16.6865 14.5189 16.4381 15.1669 16.4381H18.1393L19.6082 14.3129ZM20.6201 15.3714L19.1513 17.4966C19.0164 17.6917 18.7852 17.8095 18.5371 17.8095H15.1669C14.9209 17.8095 14.6806 17.9036 14.5001 18.0777C14.3188 18.2525 14.2134 18.4937 14.2134 18.7492V27.6889C14.2134 27.9444 14.3188 28.1856 14.5001 28.3604C14.6806 28.5345 14.9209 28.6286 15.1669 28.6286H30.3331C30.5791 28.6286 30.8194 28.5345 30.9999 28.3604C31.1812 28.1856 31.2866 27.9444 31.2866 27.6889V18.7492C31.2866 18.4937 31.1812 18.2525 30.9999 18.0777C30.8194 17.9036 30.5791 17.8095 30.3331 17.8095H26.9629C26.7148 17.8095 26.4836 17.6917 26.3487 17.4966L24.8799 15.3714H20.6201Z" fill="#292663"/>
<path fill-rule="evenodd" clip-rule="evenodd" d="M22.7495 20.2467C21.3119 20.2467 20.1109 21.3764 20.1109 22.8118C20.1109 24.2472 21.3119 25.3769 22.7495 25.3769C24.187 25.3769 25.388 24.2472 25.388 22.8118C25.388 21.3764 24.187 20.2467 22.7495 20.2467ZM18.6475 22.8118C18.6475 20.6565 20.4643 18.8753 22.7495 18.8753C25.0347 18.8753 26.8515 20.6565 26.8515 22.8118C26.8515 24.9671 25.0347 26.7483 22.7495 26.7483C20.4643 26.7483 18.6475 24.9671 18.6475 22.8118Z" fill="#292663"/>
</svg>
